<?xml version="1.0" encoding="UTF-8" standalone="no"?>
<svg
   xmlns:dc="http://purl.org/dc/elements/1.1/"
   xmlns:cc="http://creativecommons.org/ns#"
   xmlns:rdf="http://www.w3.org/1999/02/22-rdf-syntax-ns#"
   xmlns:svg="http://www.w3.org/2000/svg"
   xmlns="http://www.w3.org/2000/svg"
   xmlns:sodipodi="http://sodipodi.sourceforge.net/DTD/sodipodi-0.dtd"
   xmlns:inkscape="http://www.inkscape.org/namespaces/inkscape"
   viewBox="0 0 40 40"
   width="40"
   height="40"
   version="1.1"
   id="svg917"
   sodipodi:docname="github.svg"
   inkscape:version="0.92.4 (5da689c313, 2019-01-14)"
   style="fill:#000000">
  <metadata
     id="metadata923">
    <rdf:RDF>
      <cc:Work
         rdf:about="">
        <dc:format>image/svg+xml</dc:format>
        <dc:type
           rdf:resource="http://purl.org/dc/dcmitype/StillImage" />
        <dc:title></dc:title>
      </cc:Work>
    </rdf:RDF>
  </metadata>
  <defs
     id="defs921" />
  <sodipodi:namedview
     pagecolor="#ffffff"
     bordercolor="#666666"
     borderopacity="1"
     objecttolerance="10"
     gridtolerance="10"
     guidetolerance="10"
     inkscape:pageopacity="0"
     inkscape:pageshadow="2"
     inkscape:window-width="1366"
     inkscape:window-height="705"
     id="namedview919"
     showgrid="false"
     inkscape:zoom="4.72"
     inkscape:cx="-10.275424"
     inkscape:cy="25"
     inkscape:window-x="-8"
     inkscape:window-y="-8"
     inkscape:window-maximized="1"
     inkscape:current-layer="svg917" />
  <path
     d="m 14.514891,37.5 c 0.540979,-0.238871 0.919892,-0.790771 0.919892,-1.433223 v -4.215363 c 0,-0.153783 0.01217,-0.31381 0.0312,-0.47618 -0.01065,0.0031 -0.02054,0.0055 -0.0312,0.0078 0,0 -2.282609,0 -2.739131,0 -1.141304,0 -2.130435,-0.468373 -2.586956,-1.40512 C 9.576087,28.96311 9.3478261,27.24574 7.9782609,26.308993 7.75,26.152868 7.9021739,25.918681 8.3586957,25.918681 c 0.4565217,0.07806 1.4456521,0.702561 2.0543483,1.561246 0.684782,0.858685 1.369565,1.561245 2.586956,1.561245 1.892283,0 2.906522,-0.09758 3.516739,-0.433245 0.710652,-1.084285 1.694457,-1.908623 2.722391,-1.908623 v -0.01951 C 14.926522,26.537715 12.171413,25.067022 10.888587,22.796191 8.1,22.828977 5.6720652,23.112343 4.2865217,23.348091 4.2423913,23.092827 4.2043478,22.836002 4.1716304,22.577616 5.538913,22.346552 7.8565217,22.072553 10.521087,22.020252 10.43587,21.8048 10.362065,21.583883 10.299674,21.357503 7.6282609,21.218552 5.3228261,21.327059 4.0704348,21.433223 4.0552178,21.174057 4.0346738,20.91567 4.0316308,20.653381 c 1.2546739,-0.105384 3.4977174,-0.210768 6.1006522,-0.08665 -0.06011,-0.390311 -0.09891,-0.789209 -0.09891,-1.204501 0,-1.327058 0.456522,-2.732179 1.293478,-3.903113 -0.380435,-1.327059 -0.913043,-4.137301 0.152174,-5.15211 2.054348,0 3.5,1.014809 4.184782,1.639307 C 16.956522,11.399099 18.402174,11.08685 20,11.08685 c 1.597826,0 3.043478,0.312249 4.26087,0.858685 0.684782,-0.624498 2.130434,-1.639308 4.184782,-1.639308 1.141305,1.092872 0.532609,3.903114 0.152174,5.15211 0.836957,1.170934 1.293478,2.497993 1.217391,3.903114 0,0.377821 -0.03424,0.742372 -0.0837,1.099897 2.662282,-0.134267 4.966195,-0.02654 6.242174,0.07962 -0.0015,0.263069 -0.02511,0.519894 -0.0388,0.779842 -1.271413,-0.107726 -3.633152,-0.218575 -6.360108,-0.06948 -0.06772,0.262289 -0.149892,0.517553 -0.247283,0.76501 2.698043,0.03591 5.071196,0.303663 6.503913,0.53785 -0.03272,0.259166 -0.07076,0.515991 -0.114891,0.770474 -1.454783,-0.23887 -3.934457,-0.518333 -6.755761,-0.532385 -1.266848,2.246633 -3.971739,3.711861 -8.199891,3.882818 v 0.0242 c 1.97826,0 3.804347,3.044429 3.804347,5.15211 v 4.215363 c 0,0.642452 0.378913,1.194352 0.919892,1.433223 C 32.455435,35.133152 37.5,28.388572 37.5,20.454322 37.5,10.554465 29.650109,2.5 20,2.5 10.349891,2.5 2.5,10.554465 2.5,20.454322 2.5,28.388572 7.5445652,35.133152 14.514891,37.5 Z"
     id="path915"
     style="fill:#ffffff;stroke-width:0.77068287"
     inkscape:connector-curvature="0" />
</svg>
