<?xml version="1.0" encoding="UTF-8" standalone="no"?>
<svg
   xmlns:dc="http://purl.org/dc/elements/1.1/"
   xmlns:cc="http://creativecommons.org/ns#"
   xmlns:rdf="http://www.w3.org/1999/02/22-rdf-syntax-ns#"
   xmlns:svg="http://www.w3.org/2000/svg"
   xmlns="http://www.w3.org/2000/svg"
   xmlns:sodipodi="http://sodipodi.sourceforge.net/DTD/sodipodi-0.dtd"
   xmlns:inkscape="http://www.inkscape.org/namespaces/inkscape"
   viewBox="0 0 40 40"
   width="40"
   height="40"
   version="1.1"
   id="svg5267"
   sodipodi:docname="gmail.svg"
   inkscape:version="0.92.4 (5da689c313, 2019-01-14)">
  <metadata
     id="metadata5273">
    <rdf:RDF>
      <cc:Work
         rdf:about="">
        <dc:format>image/svg+xml</dc:format>
        <dc:type
           rdf:resource="http://purl.org/dc/dcmitype/StillImage" />
        <dc:title></dc:title>
      </cc:Work>
    </rdf:RDF>
  </metadata>
  <defs
     id="defs5271" />
  <sodipodi:namedview
     pagecolor="#ffffff"
     bordercolor="#666666"
     borderopacity="1"
     objecttolerance="10"
     gridtolerance="10"
     guidetolerance="10"
     inkscape:pageopacity="0"
     inkscape:pageshadow="2"
     inkscape:window-width="1366"
     inkscape:window-height="705"
     id="namedview5269"
     showgrid="false"
     inkscape:zoom="4.9166667"
     inkscape:cx="-9.8644066"
     inkscape:cy="24"
     inkscape:window-x="-8"
     inkscape:window-y="-8"
     inkscape:window-maximized="1"
     inkscape:current-layer="svg5267" />
  <linearGradient
     id="6769YB8EDCGhMGPdL9zwWa"
     x1="15.072"
     x2="24.111"
     y1="13.624"
     y2="24.129"
     gradientUnits="userSpaceOnUse"
     gradientTransform="translate(0,2)">
    <stop
       offset="0"
       stop-color="#e3e3e3"
       id="stop5223" />
    <stop
       offset="1"
       stop-color="#e2e2e2"
       id="stop5225" />
  </linearGradient>
  <linearGradient
     id="6769YB8EDCGhMGPdL9zwWb"
     x1="26.452999"
     x2="36.169998"
     y1="25.441"
     y2="37.643002"
     gradientUnits="userSpaceOnUse"
     gradientTransform="translate(0,2)">
    <stop
       offset="0"
       stop-color="#f5f5f5"
       id="stop5230" />
    <stop
       offset=".03"
       stop-color="#eee"
       id="stop5232" />
    <stop
       offset="1"
       stop-color="#eee"
       id="stop5234" />
  </linearGradient>
  <linearGradient
     id="6769YB8EDCGhMGPdL9zwWc"
     x1="3"
     x2="45"
     y1="24"
     y2="24"
     gradientUnits="userSpaceOnUse"
     gradientTransform="translate(0,2)">
    <stop
       offset="0"
       stop-color="#d74a39"
       id="stop5239" />
    <stop
       offset="1"
       stop-color="#c73d28"
       id="stop5241" />
  </linearGradient>
  <linearGradient
     id="6769YB8EDCGhMGPdL9zwWd"
     x1="24"
     x2="24"
     y1="8"
     y2="38.181"
     gradientUnits="userSpaceOnUse"
     gradientTransform="translate(0,2)">
    <stop
       offset="0"
       stop-opacity=".15"
       id="stop5246" />
    <stop
       offset="1"
       stop-opacity=".03"
       id="stop5248" />
  </linearGradient>
  <linearGradient
     id="6769YB8EDCGhMGPdL9zwWe"
     x1="3"
     x2="45"
     y1="17.73"
     y2="17.73"
     gradientUnits="userSpaceOnUse"
     gradientTransform="translate(0,2)">
    <stop
       offset="0"
       stop-color="#f5f5f5"
       id="stop5253" />
    <stop
       offset="1"
       stop-color="#f5f5f5"
       id="stop5255" />
  </linearGradient>
  <linearGradient
     id="6769YB8EDCGhMGPdL9zwWf"
     x1="24"
     x2="24"
     y1="8.4460001"
     y2="27.811001"
     gradientUnits="userSpaceOnUse"
     gradientTransform="translate(0,2)">
    <stop
       offset="0"
       stop-color="#e05141"
       id="stop5260" />
    <stop
       offset="1"
       stop-color="#de4735"
       id="stop5262" />
  </linearGradient>
  <g
     id="g5824"
     transform="matrix(0.85714286,0,0,0.9375,-0.57142864,-4.375)">
    <path
       style="fill:url(#6769YB8EDCGhMGPdL9zwWa)"
       inkscape:connector-curvature="0"
       id="path5228"
       d="M 42.485,42 H 5.515 C 4.126,42 3,40.874 3,39.485 V 12.515 C 3,11.126 4.126,10 5.515,10 H 42.484 C 43.874,10 45,11.126 45,12.515 V 39.484 C 45,40.874 43.874,42 42.485,42 Z" />
    <path
       style="fill:url(#6769YB8EDCGhMGPdL9zwWb)"
       inkscape:connector-curvature="0"
       id="path5237"
       d="M 42.485,42 H 8 L 45,13 V 39.485 C 45,40.874 43.874,42 42.485,42 Z" />
    <path
       style="fill:url(#6769YB8EDCGhMGPdL9zwWc)"
       inkscape:connector-curvature="0"
       id="path5244"
       d="M 5.515,10 H 8 V 42 H 5.515 C 4.126,42 3,40.874 3,39.485 V 12.515 C 3,11.126 4.126,10 5.515,10 Z m 36.97,0 H 40 v 32 h 2.485 C 43.874,42 45,40.874 45,39.485 V 12.515 C 45,11.126 43.874,10 42.485,10 Z" />
    <path
       style="fill:url(#6769YB8EDCGhMGPdL9zwWd)"
       inkscape:connector-curvature="0"
       id="path5251"
       d="M 42.485,42 H 30.515 L 3,13.485 V 12.516 C 3,11.126 4.126,10 5.515,10 H 42.484 C 43.874,10 45,11.126 45,12.515 V 39.484 C 45,40.874 43.874,42 42.485,42 Z" />
    <path
       style="fill:url(#6769YB8EDCGhMGPdL9zwWe)"
       inkscape:connector-curvature="0"
       id="path5258"
       d="M 43.822,15.101 24,29.459 4.178,15.101 C 3.438,14.565 3,13.707 3,12.793 V 12.515 C 3,11.126 4.126,10 5.515,10 H 42.484 C 43.874,10 45,11.126 45,12.515 v 0.278 c 0,0.914 -0.438,1.772 -1.178,2.308 z" />
    <path
       style="fill:url(#6769YB8EDCGhMGPdL9zwWf)"
       inkscape:connector-curvature="0"
       id="path5265"
       d="m 42.485,10 h -0.3 L 24,23.172 5.815,10 h -0.3 C 4.126,10 3,11.126 3,12.515 v 0.278 c 0,0.914 0.438,1.772 1.178,2.308 L 24,29.459 43.822,15.101 C 44.562,14.565 45,13.707 45,12.793 V 12.515 C 45,11.126 43.874,10 42.485,10 Z" />
  </g>
</svg>
