<?xml version="1.0" encoding="UTF-8" standalone="no"?>
<svg
   xmlns:dc="http://purl.org/dc/elements/1.1/"
   xmlns:cc="http://creativecommons.org/ns#"
   xmlns:rdf="http://www.w3.org/1999/02/22-rdf-syntax-ns#"
   xmlns:svg="http://www.w3.org/2000/svg"
   xmlns="http://www.w3.org/2000/svg"
   xmlns:sodipodi="http://sodipodi.sourceforge.net/DTD/sodipodi-0.dtd"
   xmlns:inkscape="http://www.inkscape.org/namespaces/inkscape"
   viewBox="0 0 80 80"
   width="40"
   height="40"
   version="1.1"
   id="svg5846"
   sodipodi:docname="linkedin.svg"
   inkscape:version="0.92.4 (5da689c313, 2019-01-14)">
  <metadata
     id="metadata5852">
    <rdf:RDF>
      <cc:Work
         rdf:about="">
        <dc:format>image/svg+xml</dc:format>
        <dc:type
           rdf:resource="http://purl.org/dc/dcmitype/StillImage" />
        <dc:title></dc:title>
      </cc:Work>
    </rdf:RDF>
  </metadata>
  <defs
     id="defs5850">
    <marker
       inkscape:stockid="Arrow1Lend"
       orient="auto"
       refY="0"
       refX="0"
       id="Arrow1Lend"
       style="overflow:visible"
       inkscape:isstock="true">
      <path
         id="path6405"
         d="M 0,0 5,-5 -12.5,0 5,5 Z"
         style="fill-rule:evenodd;stroke:#000000;stroke-width:1.00000003pt"
         transform="matrix(-0.8,0,0,-0.8,-10,0)"
         inkscape:connector-curvature="0" />
    </marker>
    <marker
       inkscape:stockid="Arrow1Lstart"
       orient="auto"
       refY="0"
       refX="0"
       id="Arrow1Lstart"
       style="overflow:visible"
       inkscape:isstock="true">
      <path
         id="path6402"
         d="M 0,0 5,-5 -12.5,0 5,5 Z"
         style="fill-rule:evenodd;stroke:#000000;stroke-width:1.00000003pt"
         transform="matrix(0.8,0,0,0.8,10,0)"
         inkscape:connector-curvature="0" />
    </marker>
  </defs>
  <sodipodi:namedview
     pagecolor="#ffffff"
     bordercolor="#666666"
     borderopacity="1"
     objecttolerance="10"
     gridtolerance="10"
     guidetolerance="10"
     inkscape:pageopacity="0"
     inkscape:pageshadow="2"
     inkscape:window-width="1366"
     inkscape:window-height="705"
     id="namedview5848"
     showgrid="false"
     inkscape:zoom="5.9"
     inkscape:cx="-18.813559"
     inkscape:cy="20"
     inkscape:window-x="-8"
     inkscape:window-y="-8"
     inkscape:window-maximized="1"
     inkscape:current-layer="svg5846" />
  <g
     id="g6400"
     transform="matrix(0.97222222,0,0,0.91666667,1.1111112,-15)">
    <path
       style="fill:#8bb7f0"
       inkscape:connector-curvature="0"
       id="path5840"
       d="m 4.5,24.5 h 71 v 71 h -71 z" />
    <path
       style="fill:#4e7ab5"
       inkscape:connector-curvature="0"
       id="path5842"
       d="M 75,25 V 95 H 5 V 25 h 70 m 1,-1 H 4 v 72 h 72 z" />
    <path
       style="fill:#ffffff"
       inkscape:connector-curvature="0"
       id="path5844"
       d="M 16,52.154 H 27.077 V 74.169 84 H 16 Z m 5.538,-3.231 v 0 C 18.215,48.923 16,46.569 16,43.661 c 0,-2.908 2.215,-5.123 5.538,-5.123 3.323,0 5.4,2.215 5.538,5.123 0.001,2.908 -2.076,5.262 -5.538,5.262 z M 64.054,84 H 53.119 c 0,0 0,-16.539 0,-17.77 0,-1.231 -0.137,-5.468 -4.784,-5.468 -4.101,0 -4.784,3.964 -4.784,5.468 0,1.504 0,17.77 0,17.77 H 32.615 V 52.561 H 43.55 v 4.237 c 0,0 2.187,-4.237 8.611,-4.237 6.561,0 11.892,4.511 11.892,13.669 V 84 Z" />
  </g>
</svg>
