<?xml version="1.0" encoding="UTF-8" standalone="no"?>
<svg
   xmlns:dc="http://purl.org/dc/elements/1.1/"
   xmlns:cc="http://creativecommons.org/ns#"
   xmlns:rdf="http://www.w3.org/1999/02/22-rdf-syntax-ns#"
   xmlns:svg="http://www.w3.org/2000/svg"
   xmlns="http://www.w3.org/2000/svg"
   xmlns:sodipodi="http://sodipodi.sourceforge.net/DTD/sodipodi-0.dtd"
   xmlns:inkscape="http://www.inkscape.org/namespaces/inkscape"
   viewBox="0 0 20 20"
   width="40"
   height="40"
   version="1.1"
   id="svg7325"
   sodipodi:docname="telegram-app.svg"
   inkscape:version="0.92.4 (5da689c313, 2019-01-14)">
  <metadata
     id="metadata7331">
    <rdf:RDF>
      <cc:Work
         rdf:about="">
        <dc:format>image/svg+xml</dc:format>
        <dc:type
           rdf:resource="http://purl.org/dc/dcmitype/StillImage" />
        <dc:title></dc:title>
      </cc:Work>
    </rdf:RDF>
  </metadata>
  <defs
     id="defs7329" />
  <sodipodi:namedview
     pagecolor="#ffffff"
     bordercolor="#666666"
     borderopacity="1"
     objecttolerance="10"
     gridtolerance="10"
     guidetolerance="10"
     inkscape:pageopacity="0"
     inkscape:pageshadow="2"
     inkscape:window-width="1366"
     inkscape:window-height="705"
     id="namedview7327"
     showgrid="false"
     inkscape:zoom="2.4583333"
     inkscape:cx="48"
     inkscape:cy="48"
     inkscape:window-x="-8"
     inkscape:window-y="-8"
     inkscape:window-maximized="1"
     inkscape:current-layer="svg7325" />
  <g
     id="g7880"
     transform="matrix(0.4375,0,0,0.4375,-0.5,9.5625)">
    <path
       style="fill:#29b6f6"
       inkscape:connector-curvature="0"
       id="path7317"
       d="m 24,-19 a 20,20 0 1 0 0,40 20,20 0 1 0 0,-40 z" />
    <path
       style="fill:#ffffff"
       inkscape:connector-curvature="0"
       id="path7319"
       d="m 33.95,-8 -3.746,19.126 c 0,0 -0.161,0.874 -1.245,0.874 -0.576,0 -0.873,-0.274 -0.873,-0.274 L 19.972,4.993 16.002,2.992 10.907,1.637 C 10.907,1.637 10,1.375 10,0.625 10,0 10.933,-0.298 10.933,-0.298 L 32.249,-8.766 C 32.248,-8.767 32.9,-9.001 33.375,-9 33.667,-9 34,-8.875 34,-8.5 34,-8.25 33.95,-8 33.95,-8 Z" />
    <path
       style="fill:#b0bec5"
       inkscape:connector-curvature="0"
       id="path7321"
       d="m 23,7.505 -3.426,3.374 c 0,0 -0.149,0.115 -0.348,0.12 -0.069,0.002 -0.143,-0.009 -0.219,-0.043 l 0.964,-5.965 z" />
    <path
       style="fill:#cfd8dc"
       inkscape:connector-curvature="0"
       id="path7323"
       d="m 29.897,-4.804 c -0.169,-0.22 -0.481,-0.26 -0.701,-0.093 L 16,3 c 0,0 2.106,5.892 2.427,6.912 0.322,1.021 0.58,1.045 0.58,1.045 l 0.964,-5.965 9.832,-9.096 c 0.22,-0.167 0.261,-0.48 0.094,-0.7 z" />
  </g>
</svg>
